<svg id="Layer_1" data-name="Layer 1" xmlns="http://www.w3.org/2000/svg" width="512" height="512" viewBox="0 0 512 512">
    <defs>
        <style>.cls-1{isolation:isolate;opacity:0.4;}</style>
    </defs>
    <path class="cls-1"
          d="M32,194.9a26.66,26.66,0,0,1,.6-5.6C37.9,168.3,78.8,32,256,32S474.1,168.3,479.4,189.3a21.36,21.36,0,0,1,.6,5.6A29.06,29.06,0,0,1,450.9,224H61.1A29.06,29.06,0,0,1,32,194.9Z"/>
    <path class="cls-1"
          d="M32,400a16,16,0,0,1,16-16H464a16,16,0,0,1,16,16v16a64.06,64.06,0,0,1-64,64H96a64.06,64.06,0,0,1-64-64Z"/>
</svg>