<svg xmlns="http://www.w3.org/2000/svg" width="283" height="131.5" viewBox="0 0 283 131.5"><defs><style>.cls-1{fill:#212738;}.cls-2{font-size:20.37px;font-family:JetBrainsMono-Bold, JetBrains Mono;font-weight:700;}.cls-2,.cls-5{fill:#bdb2ff;}.cls-3{fill:#121625;}.cls-4{fill:#424e70;}</style></defs><g id="x"><rect class="cls-1" width="283" height="131.5"/><text class="cls-2" transform="translate(68.07 108.35)">eliaswitt.com</text><path class="cls-3" d="M97.55,76.61c3.89,2.73,8.94,4,15.44,4h53.09c6,0,11-1.87,14.67-5.56h0l6.54-6.54c-3.69,3.69-8.62,5.56-14.67,5.56h-53.1c-6.49,0-11.54-1.32-15.43-4.05a17.92,17.92,0,0,1-5.69-6.48,21.85,21.85,0,0,1-2.32-10.23V37.58A21.85,21.85,0,0,1,98.4,27.35a18.2,18.2,0,0,1,3.23-4.43L95.1,29.46h0a17.82,17.82,0,0,0-3.23,4.43,21.85,21.85,0,0,0-2.31,10.23V59.89a21.89,21.89,0,0,0,2.31,10.24A17.92,17.92,0,0,0,97.55,76.61Z"/><path class="cls-4" d="M182.41,20.28a7.49,7.49,0,0,1,7.5,7.51V50.61c0,4.93-.74,11.06-5.06,15.38-3.28,3.29-7.62,4.52-12.16,4.52h-53.1c-4.32,0-9.35-.58-13.41-3.42a14.45,14.45,0,0,1-4.58-5.21,18.5,18.5,0,0,1-1.91-8.6V37.52a18.5,18.5,0,0,1,1.91-8.6,14.57,14.57,0,0,1,4.58-5.22c4.06-2.83,9.09-3.41,13.41-3.41h62.82m0-3.54H119.59c-6.49,0-11.54,1.33-15.44,4.05a18,18,0,0,0-5.69,6.48,22,22,0,0,0-2.31,10.24V53.29a22,22,0,0,0,2.31,10.24A18.07,18.07,0,0,0,104.15,70c3.9,2.73,8.95,4.06,15.44,4.06h53.1c6,0,11-1.87,14.66-5.56,4.11-4.1,6.1-9.95,6.1-17.88V27.79a11,11,0,0,0-11-11Z"/><path class="cls-5" d="M172.69,64c-4.15,0-6.92-.65-7.93-3.78-1,3.13-3.6,3.78-7.66,3.78h-.18c-7.84,0-10.15-5-10.15-12.82V27.24a.42.42,0,0,1,.43-.42h6.34a.42.42,0,0,1,.43.42V51.45c0,4.79.73,6.27,3.69,6.27,2.49,0,3.5-1.48,3.5-6.27V27.24a.42.42,0,0,1,.43-.42H168a.42.42,0,0,1,.43.42V51.72c0,4.8.83,6,3.59,6,3.05,0,3.51-1.29,3.51-6V27.24a.42.42,0,0,1,.42-.42h6.44a.42.42,0,0,1,.42.42V51.17C182.83,59,180.53,64,172.69,64ZM140,56.15H119c-4.71,0-6-.46-6-3.51,0-2.76,1.2-3.59,6-3.59h20.23a.42.42,0,0,0,.42-.43V42.19a.42.42,0,0,0-.42-.43h-20c-4.79,0-6.27-1-6.27-3.5,0-3,1.48-3.69,6.27-3.69h20a.42.42,0,0,0,.42-.43V27.8a.42.42,0,0,0-.42-.43H119.59c-7.84,0-12.82,2.31-12.82,10.15v.18c0,4.06.65,6.64,3.78,7.66-3.13,1-3.78,3.78-3.78,7.93,0,7.84,5,10.14,12.82,10.14H142a.21.21,0,0,0,.19-.1.22.22,0,0,0,0-.21A20.85,20.85,0,0,1,140,56.15Z"/></g></svg>