<svg id="Layer_1" data-name="Layer 1" xmlns="http://www.w3.org/2000/svg" width="97.35" height="51.55"
     viewBox="0 0 97.35 51.55">
    <path class="cls-1"
          d="M85.41,43.77c-4.89,0-8.15-.76-9.34-4.45-1.2,3.69-4.24,4.45-9,4.45h-.22c-9.23,0-11.94-5.86-11.94-15.1V.5a.5.5,0,0,1,.5-.5h7.47a.5.5,0,0,1,.5.5V29c0,5.65.87,7.39,4.34,7.39,2.94,0,4.13-1.74,4.13-7.39V.5a.5.5,0,0,1,.5-.5h7.58a.5.5,0,0,1,.5.5V29.33c0,5.64,1,7.06,4.24,7.06,3.58,0,4.12-1.52,4.12-7.06V.5a.5.5,0,0,1,.5-.5h7.58a.5.5,0,0,1,.5.5V28.67C97.35,37.91,94.64,43.77,85.41,43.77ZM46.93,34.54H22.22c-5.54,0-7.06-.54-7.06-4.13,0-3.26,1.42-4.23,7.06-4.23H46.05a.5.5,0,0,0,.5-.5V18.1a.5.5,0,0,0-.5-.5H22.55c-5.65,0-7.39-1.2-7.39-4.13,0-3.48,1.74-4.35,7.39-4.35h23.5a.5.5,0,0,0,.5-.5V1.15a.5.5,0,0,0-.5-.5H22.88c-9.24,0-15.1,2.72-15.1,12v.22c0,4.78.76,7.82,4.45,9C8.54,23,7.78,26.28,7.78,31.17c0,9.23,5.86,11.95,15.1,11.95H49.29a.25.25,0,0,0,.22-.37A24.32,24.32,0,0,1,46.93,34.54Z"/>
</svg>