<svg id="Layer_1" data-name="Layer 1" xmlns="http://www.w3.org/2000/svg" width="114.59" height="67.49"
     viewBox="0 0 114.59 67.49">
    <defs>
        <style>.cls-1{fill:#bdb2ff;}</style>
    </defs>
    <path class="cls-1"
          d="M90.13,55.64c-4.88,0-8.14-.76-9.34-4.46-1.19,3.7-4.23,4.46-9,4.46h-.22c-9.23,0-11.94-5.87-11.94-15.1V12.37a.5.5,0,0,1,.5-.5h7.47a.5.5,0,0,1,.5.5v28.5c0,5.64.86,7.38,4.34,7.38,2.93,0,4.13-1.74,4.13-7.38V12.37a.5.5,0,0,1,.5-.5h7.58a.5.5,0,0,1,.5.5V41.19c0,5.65,1,7.06,4.23,7.06,3.59,0,4.13-1.52,4.13-7.06V12.37a.5.5,0,0,1,.5-.5h7.58a.5.5,0,0,1,.5.5V40.54C102.08,49.77,99.37,55.64,90.13,55.64ZM51.65,46.41H27c-5.54,0-7.06-.55-7.06-4.13C19.89,39,21.3,38,27,38H50.78a.5.5,0,0,0,.5-.5V30a.51.51,0,0,0-.5-.5H27.28c-5.65,0-7.39-1.19-7.39-4.13,0-3.47,1.74-4.34,7.39-4.34h23.5a.5.5,0,0,0,.5-.5V13a.5.5,0,0,0-.5-.5H27.6c-9.23,0-15.09,2.71-15.09,12v.21c0,4.78.76,7.82,4.45,9-3.69,1.19-4.45,4.45-4.45,9.34,0,9.23,5.86,12,15.09,12H54a.26.26,0,0,0,.22-.13.25.25,0,0,0,0-.24A24.57,24.57,0,0,1,51.65,46.41Z"/>
</svg>