<svg id="Layer_1" data-name="Layer 1" xmlns="http://www.w3.org/2000/svg" width="97.35" height="51.55"
     viewBox="0 0 97.35 51.55">
    <path class="cls-1"
          d="M0,39C0,48.18,5.86,50.9,15.1,50.9H41.51a.23.23,0,0,0,.18-.08l6.44-6.43c1.47,4.52,4.73,7.16,10.93,7.16h.21c2.92,0,5.2-.28,6.79-1.35a4.91,4.91,0,0,0,.79-.64l1.72-1.72c1.38,3,4.52,3.71,9.06,3.71,3.85,0,6.57-1,8.43-2.88l7.77-7.78c2.6-2.6,3.52-6.83,3.52-12.22V.5a.52.52,0,0,0-.11-.32A.5.5,0,0,0,96.85,0H89.27a.51.51,0,0,0-.35.15l-.09.08L81.14,7.92a.51.51,0,0,0-.14.36V34.34a14.77,14.77,0,0,1-.59-5V.5A.52.52,0,0,0,80.3.18.5.5,0,0,0,79.91,0H72.33A.49.49,0,0,0,72,.15L64.2,7.92a.51.51,0,0,0-.15.36V34.46A14.47,14.47,0,0,1,63.36,29V.5a.52.52,0,0,0-.11-.32A.53.53,0,0,0,62.86,0H55.39A.51.51,0,0,0,55,.15L47.26,7.92a.48.48,0,0,0-.15.36V35.67c-.07-.38-.13-.76-.18-1.13H22.22A14.84,14.84,0,0,1,16.89,34H38.27a.48.48,0,0,0,.35-.14L46.4,26h0a.51.51,0,0,0,.15-.35V18.1a.49.49,0,0,0-.5-.5H22.55a14.34,14.34,0,0,1-5.26-.7h21a.48.48,0,0,0,.35-.14L46.4,9a.51.51,0,0,0,.15-.36V1.15a.47.47,0,0,0-.11-.31.49.49,0,0,0-.39-.19H22.88c-5.39,0-9.62.92-12.22,3.52L2.88,12C1,13.81,0,16.53,0,20.38v.21c0,4.46.66,7.4,3.74,8.75L2.07,31C.41,32.67,0,35.38,0,39Z"/>
</svg>