<?xml version="1.0" encoding="utf-8"?>
<!-- Generator: Adobe Illustrator 26.0.1, SVG Export Plug-In . SVG Version: 6.00 Build 0)  -->
<svg version="1.1" id="Layer_1" xmlns="http://www.w3.org/2000/svg" xmlns:xlink="http://www.w3.org/1999/xlink" x="0px"
	 y="0px"
	 viewBox="0 0 22 22" style="enable-background:new 0 0 22 22;" xml:space="preserve">
<path d="M20,0H2C0.9,0,0,0.9,0,2v18c0,1.1,0.9,2,2,2h18c1.1,0,2-0.9,2-2V2C22,0.9,21.1,0,20,0z M7,18H4V8.5H7V18z M5.4,7.2
	c-1,0-1.7-0.8-1.7-1.7s0.8-1.7,1.7-1.7c0.9,0,1.7,0.8,1.7,1.7C7.2,6.4,6.4,7.2,5.4,7.2z M18,18h-2.9v-4.6c0-1.1,0-2.5-1.5-2.5
	c-1.5,0-1.8,1.2-1.8,2.4V18H8.8V8.5h2.8v1.3h0c0.4-0.7,1.4-1.5,2.8-1.5c3,0,3.5,2,3.5,4.5L18,18z"/>
</svg>
