<svg id="Layer_1" data-name="Layer 1" xmlns="http://www.w3.org/2000/svg" width="106.25" height="59.15" viewBox="0 0 106.25 59.15"><defs><style>.cls-1{fill:#bdb2ff;}.cls-2{fill:#212738;}</style></defs><path class="cls-1" d="M30.69,59.15H86c5.34,0,10.45-1.45,14.32-5.32,5.08-5.09,6-12.31,6-18.12V8.84A8.84,8.84,0,0,0,97.41,0h-74c-5.08,0-11,.68-15.79,4a17.06,17.06,0,0,0-5.39,6.14A21.71,21.71,0,0,0,0,20.3V38.87A21.71,21.71,0,0,0,2.25,49a17.15,17.15,0,0,0,5.39,6.14c4.78,3.34,10.71,4,15.79,4Z"/><path class="cls-2" d="M86,51.47c-4.89,0-8.15-.76-9.34-4.45-1.2,3.69-4.24,4.45-9,4.45h-.22c-9.23,0-11.94-5.87-11.94-15.1V8.2a.5.5,0,0,1,.5-.5h7.47a.5.5,0,0,1,.5.5V36.7c0,5.65.87,7.38,4.34,7.38,2.93,0,4.13-1.73,4.13-7.38V8.2a.5.5,0,0,1,.5-.5h7.58a.5.5,0,0,1,.5.5V37c0,5.65,1,7.06,4.24,7.06,3.58,0,4.12-1.52,4.12-7.06V8.2a.5.5,0,0,1,.5-.5h7.58a.5.5,0,0,1,.5.5V36.37C97.91,45.6,95.2,51.47,86,51.47ZM47.48,42.24H22.78c-5.54,0-7.06-.55-7.06-4.13,0-3.26,1.41-4.24,7.06-4.24H46.61a.5.5,0,0,0,.5-.5V25.79a.51.51,0,0,0-.5-.5H23.11c-5.65,0-7.39-1.19-7.39-4.12,0-3.48,1.74-4.35,7.39-4.35h23.5a.5.5,0,0,0,.5-.5V8.85a.5.5,0,0,0-.5-.5H23.43c-9.23,0-15.09,2.71-15.09,12v.21c0,4.78.76,7.82,4.45,9C9.1,30.72,8.34,34,8.34,38.87c0,9.23,5.86,12,15.09,12H49.85a.26.26,0,0,0,.22-.13.26.26,0,0,0,0-.24A24.57,24.57,0,0,1,47.48,42.24Z"/></svg>