<svg id="Layer_2" data-name="Layer 2" xmlns="http://www.w3.org/2000/svg" width="123.36" height="63.13"
     viewBox="0 0 123.36 63.13">
    <defs>
        <style>.cls-1{fill:#70a3f4;}</style>
    </defs>
    <path class="cls-1"
          d="M12.94,39.05A12.56,12.56,0,0,1,6,37.21a12.16,12.16,0,0,1-4.46-5,15.35,15.35,0,0,1-1.58-7V12.51A13.89,13.89,0,0,1,1.51,5.82,10.49,10.49,0,0,1,5.83,1.51,13.85,13.85,0,0,1,12.51,0c3.6,0,6.4.69,8.42,2.07s3,3.57,3,6.56V27.4H19.16L19.59,25h-1a3.57,3.57,0,0,1-1.59,2,5.41,5.41,0,0,1-2.94.76A5,5,0,0,1,9.9,26a8.25,8.25,0,0,1-1.49-5.24V16A8.25,8.25,0,0,1,9.9,10.72,5,5,0,0,1,14,8.84a5.24,5.24,0,0,1,3.11.89,3.71,3.71,0,0,1,1.55,2.35h.95l-.86-3V8.63a3.3,3.3,0,0,0-1.66-3.21,9.89,9.89,0,0,0-4.6-.89A7,7,0,0,0,7.1,6.6a8.37,8.37,0,0,0-1.92,5.91V25.24a7.83,7.83,0,0,0,2,5.76,7.79,7.79,0,0,0,5.76,2H48.11v6Zm3.24-14.89a2.4,2.4,0,0,0,2-.77,4.51,4.51,0,0,0,.6-2.68V16a4.17,4.17,0,0,0-.67-2.54,2.24,2.24,0,0,0-1.92-.91,2.24,2.24,0,0,0-1.92.91A4.17,4.17,0,0,0,13.59,16v4.75a4.1,4.1,0,0,0,.67,2.65A2.35,2.35,0,0,0,16.18,24.16Zm11.33,2.89V21H48.22v6Zm0-12V9H48.22v6Z"/>
</svg>